<svg xmlns="http://www.w3.org/2000/svg" xml:space="preserve" width="200" height="200"
  viewBox="0 0 20 20">
  <g style="display:inline">
    <path d="M14.76 12.131s-3.012 1.436-3.297 1.536c-.238.018-.525.442-1.564.525-1.038.083-.812-.337-.812-.337s.255-.48 1.15-.502c.193-.005-.482.761.61.143.298-.168-.091-.485-.534-.481-.139 0-1.703.334-1.761 1.16-.073 1.027 3.032-.066 3.032-.066l3.011-1.105s1.06-.569 1.006-.735c-.056-.165-.84-.138-.84-.138z" style="display:inline;opacity:1;fill:#ff80eb;fill-opacity:1;stroke:none;stroke-width:.1;stroke-dasharray:none;stroke-opacity:1"/>
  </g>
  <g style="display:inline">
    <g style="display:inline">
      <path d="M3.914 8.786c-.077-.027-.126-.1-.135-.2-.005-.06-.005-.063.085-.27.585-1.362 1.248-2.553 1.855-3.336.385-.496.761-.842 1.105-1.013.197-.098.33-.132.526-.133.207-.001.32.035.422.137.107.107.151.236.158.466.01.288-.036.56-.194 1.153-.186.7-.225.88-.225 1.058-.001.17.033.232.15.277.287.11.399.36.305.684-.04.141-.128.295-.174.306-.097.025-.34-.126-.528-.328-.307-.33-.478-.707-.478-1.057 0-.16.012-.215.115-.528.369-1.124.429-1.638.182-1.564-.195.059-.626.562-1.154 1.35-.354.527-.48.744-.796 1.366-.33.65-.458.884-.634 1.161-.149.235-.311.423-.4.464a.308.308 0 0 1-.185.007zm7.995.124c-.077-.052-.142-.139-.296-.394l-.11-.181.013-.23c.039-.719.122-1.331.24-1.78.08-.298.323-.972.439-1.214.124-.26.191-.455.205-.6.009-.1.005-.121-.033-.17-.04-.049-.052-.053-.135-.045-.192.018-.514.228-.845.547-.335.325-.64.77-1.427 2.077-.53.881-.704 1.146-.853 1.3-.165.172-.249.158-.293-.05-.049-.227-.036-.264.312-.903C10.16 5.37 11.255 4.211 12.2 4.016c.45-.093.61.005.666.414.048.346-.025.832-.298 2.002-.221.95-.225.971-.23 1.281-.01.61-.138 1.153-.288 1.221-.063.029-.065.029-.141-.024z" style="display:inline;opacity:1;fill:#ff80eb;fill-opacity:1;stroke:none;stroke-width:.1;stroke-dasharray:none;stroke-opacity:1"/>
    </g>
    <g style="display:inline">
      <path d="M14.483 8.957s-2.015.574-2.009.82c.007.247 2.009-.82 2.009-.82zm.171.984s-2.031.206-2.015.443c.016.238 2.015-.443 2.015-.443zm-.097 1.321s-1.523-.496-1.957-.445c-.434.051 1.957.445 1.957.445zM1.118 8.305s1.745.37 2.002.659c.258.288-2.002-.66-2.002-.66ZM.78 9.407s1.493-.052 1.964.238c.47.29-1.964-.238-1.964-.238Zm-.087 1.257s1.196-.571 1.894-.547c.698.025-1.894.547-1.894.547z" style="display:inline;opacity:1;fill:#ff80eb;fill-opacity:1;stroke:none;stroke-width:.1;stroke-dasharray:none;stroke-opacity:1"/>
    </g>
    <path d="M9.55 11.307c-.107-.033-.19-.123-.238-.254-.025-.068-.026-.079-.026-.248 0-.146.004-.193.022-.272.09-.405.337-.854.652-1.184.41-.428.833-.568 1.054-.348.088.088.13.22.13.41.002.806-.856 1.915-1.475 1.91a.525.525 0 0 1-.12-.014zm-5.416-.066c-.176-.045-.293-.212-.33-.473a2.302 2.302 0 0 1 .014-.493c.124-.685.548-1.363.973-1.558a.458.458 0 0 1 .24-.05c.468.03.533.873.13 1.694-.216.44-.519.767-.797.86a.425.425 0 0 1-.23.02zm2.085-.972c-.042.317-.068.523.115.725.196.218.435-.152.553-.293.064-.078.129-.276.219-.439.052-.094.163-.38.186-.314.064.18-.227.254.124.766.017.026.178.069.334.007.202-.08.357-.3.495-.439.246-.351.614-1.132.428-1.216-.117-.053-.579.353-.682.715-.048.17-.215.596-.294.533-.057-.045.061-.31.08-.65.02-.365-.042-.496-.183-.46-.176.045-.359.293-.544.543-.089.12-.173.477-.285.543-.02.011-.007-.114-.028-.306-.02-.182 0-.45.01-.623.007-.108-.04-.166-.141-.255l-.154.154-.086.164-.097.399Z" style="display:inline;opacity:1;fill:#ff80eb;fill-opacity:1;stroke:none;stroke-width:.1;stroke-dasharray:none;stroke-opacity:1"/>
  </g>
</svg>